<svg xmlns="http://www.w3.org/2000/svg" viewBox="0 0 419.8 269.22"><defs><style>.cls-1{fill:#273454;}.cls-2,.cls-3{fill:#d1b1b2;}.cls-2{opacity:0.88;}</style></defs><title>pageNotFound</title><g id="Camada_3" data-name="Camada 3"><circle class="cls-1" cx="5" cy="65.96" r="5"/><circle class="cls-1" cx="59.5" cy="67.46" r="1.5"/><circle class="cls-1" cx="83" cy="53.96" r="5"/><circle class="cls-1" cx="38" cy="32.96" r="7"/><circle class="cls-1" cx="83" cy="22.96" r="3"/><circle class="cls-1" cx="38.5" cy="137.46" r="7.5"/><circle class="cls-1" cx="34.5" cy="101.46" r="4.5"/><circle class="cls-1" cx="64" cy="101.96" r="3"/><circle class="cls-1" cx="351" cy="239.96" r="5"/><circle class="cls-1" cx="406" cy="249.96" r="5"/><circle class="cls-1" cx="379" cy="203.96" r="7"/><circle class="cls-1" cx="406" cy="218.96" r="3"/><circle class="cls-1" cx="380.5" cy="264.46" r="1.5"/><circle class="cls-1" cx="388.5" cy="247.46" r="2.5"/></g><g id="Camada_2" data-name="Camada 2"><path class="cls-2" d="M75,135c-24.28,25.32-20.91,64.75-20,75,.84,9.48,4.76,53.81,35,74,39.57,26.41,76.29-20.51,157-14,74.11,6,90.07,49.33,130,34,57.34-22,62.72-126.13,63.54-142,2.18-42.3-9.63-56.91-14.54-62-12.16-12.61-26.6-13.16-56-19-68.36-13.57-62.61-25-91-25-49.48,0-50.43,34.58-125,55C110.58,122.89,93.22,116,75,135Z" transform="translate(-21 -38.04)"/><path class="cls-3" d="M82,15" transform="translate(-21 -38.04)"/></g><g id="Camada_1" data-name="Camada 1"><path d="M100.76,217.52v1.58H89.24v-1.58l5.09-.9h.9ZM93,196.74c0-2.48,0-3.87-.13-5.67l-3.6-.41v-1.57l6.12-2.7.67.45.36,3.82.18.09v14l-.13.27v4.5c0,3.15,0,6.39.13,9.54H92.89q.14-4.72.13-9.45Zm9.18-7.88c-1.66,0-3.91.81-7.2,4l-.4-.81c2.61-4,5.53-5.67,8.59-5.67,4.77,0,8.55,4.23,8.55,11.16s-4,11.33-9.22,11.33c-2.75,0-5.54-1.25-7.92-5.94l.4-.71c2.34,3,4.5,4.18,6.71,4.18,3.42,0,6.21-2.66,6.21-8.46S105.53,188.86,102.2,188.86Z" transform="translate(-21 -38.04)"/><path d="M123.26,196.51a50.39,50.39,0,0,1,7-1.89v1.62a41.43,41.43,0,0,0-6,1.8c-4,1.58-4.5,3.29-4.5,4.59,0,2.39,1.57,3.33,3.64,3.33,1.58,0,2.48-.58,5.31-2.61l.9-.68.63,1-1.31,1.3c-2.69,2.71-4.22,4-7,4-3.28,0-6-1.89-6-5.62C115.88,200.74,117.23,198.72,123.26,196.51Zm5.18,7.65V193.9c0-4.41-1.27-5.49-4.23-5.49a10.53,10.53,0,0,0-4,.81l1.8-1.39-1.17,3.87c-.41,1.3-1.08,2-2.3,2a1.83,1.83,0,0,1-2-1.8c.85-3.42,4.18-5.53,8.68-5.53s6.88,2.11,6.88,7.78v9.54c0,2,.63,2.75,1.67,2.75a2.22,2.22,0,0,0,1.75-1l.9,1a4.19,4.19,0,0,1-3.82,2.29C130.05,208.75,128.44,207,128.44,204.16Z" transform="translate(-21 -38.04)"/><path d="M154.94,212.44c0-2-1.26-3.56-4.54-3.56h-5.31a17.71,17.71,0,0,1-2.25-.13v-.14c-2.3-.49-3.47-1.66-3.47-3.55,0-1.58,1-3.29,4.1-5.94l1,.67c-1.35,1.44-1.94,2.44-1.94,3.79s.5,2,2.61,2h5.94c4.81,0,7.11,2.11,7.11,5.76,0,3.87-3.69,7.74-11,7.74-6.48,0-9.31-2.25-9.31-5.49,0-2.21,1.39-3.87,5.94-5.81l.22.27c-1.8,1.76-2.52,3.11-2.52,4.86,0,3,2.3,4.14,5.81,4.14C152.29,217.07,154.94,215,154.94,212.44ZM147,186.39c4.59,0,8,2.43,8,7.38,0,4.77-3.51,7.38-8.05,7.38s-8.06-2.43-8.06-7.38C138.92,189,142.43,186.39,147,186.39Zm-4.59,7.42c0,3.29,1.62,5.54,4.41,5.54s4.68-2.39,4.68-5.72-1.62-5.44-4.45-5.44S142.43,190.53,142.43,193.81Zm15.3-7.42.67.45v2.79h-6.61v-1.22Z" transform="translate(-21 -38.04)"/><path d="M179.65,195a9,9,0,0,1-.32,2.52h-16.6v-1.89h10.71c2.16,0,2.65-1,2.65-2.29a5,5,0,0,0-5-4.91c-2.88,0-6.21,2.43-6.21,8.87,0,5.71,2.88,8.77,7.38,8.77a7.75,7.75,0,0,0,6.29-3.2l1,.82a9.14,9.14,0,0,1-8.59,5.21c-6,0-9.95-4.18-9.95-11s4.68-11.47,10.26-11.47C176,186.39,179.65,189.54,179.65,195Z" transform="translate(-21 -38.04)"/><path d="M197.6,208.3c.09-2,.13-6.66.13-9.45v-2.11c0-2.48,0-3.87-.13-5.67l-3.6-.41v-1.57l6.12-2.7.67.45.54,5.22v6.79c0,2.79,0,7.42.14,9.45Zm7-1.57v1.57H194.27v-1.57l4.95-.91h.9Zm10.39-12v4.14c0,2.88.05,7.42.14,9.45h-3.87c.09-2,.13-6.57.13-9.45v-3.78c0-4.18-1.08-5.53-3.78-5.53-2.25,0-4.09.9-6.66,3.1H200v-2h2.29l-1.93.81c2.11-2.84,5.71-5,8.91-5C213.17,186.39,215,188.77,215,194.71Zm-1.21,11.11,4.5.91v1.57H208v-1.57l5-.91Z" transform="translate(-21 -38.04)"/><path d="M221.72,197.73c0-7.47,5.08-11.34,10.26-11.34s10.26,3.87,10.26,11.34-5.18,11.15-10.26,11.15S221.72,205.19,221.72,197.73Zm16.47,0c0-6-2.3-9.32-6.21-9.32s-6.21,3.29-6.21,9.32,2.2,9.13,6.21,9.13S238.19,203.75,238.19,197.73Z" transform="translate(-21 -38.04)"/><path d="M254.16,206.63a5.14,5.14,0,0,0,3.06-1.25l1,1.21a6.44,6.44,0,0,1-5.22,2.29c-3.11,0-5-1.62-5-5.08,0-1.08,0-2,0-3.78V189.31h-3.78v-1.93l5.58-.72-1.8,1.48,1.35-7.29H252l-.36,7.88v14.58C251.64,205.65,252.63,206.63,254.16,206.63ZM257.85,187v2.34h-8V187Z" transform="translate(-21 -38.04)"/><path d="M274.28,189.31H270.5v-1.93l5.08-.68-1.3.68c.45-5.18,1.17-7.92,3.19-10.08a8.2,8.2,0,0,1,6.26-2.75c2.11,0,3.82.68,4.27,2.39-.09,1.12-1.08,2-2.7,2a5.23,5.23,0,0,1-3.19-1.26L279.9,176l3.78-.9,1,1.35a4.24,4.24,0,0,0-1.76-.54,4.63,4.63,0,0,0-3.73,2.52c-1,1.8-1.71,4.82-1.35,10.31v10.12q0,4.72.13,9.45h-3.87q.14-4.73.14-9.45Zm7.78,17.42v1.57H270.54v-1.57l5.09-.91h.9Zm2-19.76v2.34h-8V187Z" transform="translate(-21 -38.04)"/><path d="M286.25,197.73c0-7.47,5.08-11.34,10.26-11.34s10.26,3.87,10.26,11.34-5.18,11.15-10.26,11.15S286.25,205.19,286.25,197.73Zm16.47,0c0-6-2.3-9.32-6.21-9.32s-6.21,3.29-6.21,9.32,2.2,9.13,6.21,9.13S302.72,203.75,302.72,197.73Z" transform="translate(-21 -38.04)"/><path d="M316.22,200.33c0,4,1.17,5.4,3.64,5.4,2.3,0,4.64-1.12,6.89-3.37h.94v2.29H325.4L327,204c-2.56,3.46-5.62,4.9-8.55,4.9-3.6,0-5.85-2.15-5.8-8.09l.13-11.88.95.85-4.19-.9v-1.57l6.48-.59.45.45-.22,6.3Zm10.71,8.33-.63-5.26.13-14.49.95.85-4.19-.9v-1.57l6.39-.59.45.45-.13,6.3V206.9l-1.08-1.08,4.18.91v1.57Z" transform="translate(-21 -38.04)"/><path d="M339.75,208.3c.09-2,.14-6.66.14-9.45v-2.11c0-2.48-.05-3.87-.14-5.67l-3.6-.41v-1.57l6.12-2.7.68.45.54,5.22v6.79c0,2.79,0,7.42.13,9.45Zm7-1.57v1.57H336.42v-1.57l4.95-.91h.9Zm10.4-12v4.14c0,2.88,0,7.42.13,9.45h-3.87c.09-2,.14-6.57.14-9.45v-3.78c0-4.18-1.08-5.53-3.78-5.53-2.25,0-4.1.9-6.66,3.1h-.95v-2h2.3l-1.94.81c2.12-2.84,5.72-5,8.91-5C355.32,186.39,357.17,188.77,357.17,194.71ZM356,205.82l4.5.91v1.57H350.1v-1.57l4.95-.91Z" transform="translate(-21 -38.04)"/><path d="M374,206.41c2.3,0,3.87-1,5.94-3.64l.41,1.21c-1.71,3.06-3.83,4.9-7.34,4.9-5.49,0-9.18-4.54-9.18-11.06,0-6.84,4.05-11.43,9.59-11.43,2.56,0,4.77,1,7.11,4.54l-.45,1.17c-2.61-2.52-4.41-3.24-6.12-3.24-3.38,0-6.3,2.7-6.3,8.87C367.7,203.71,370.4,206.41,374,206.41Zm12.51.32v1.57l-6.88.45-.45-4.59V191l.13-.59V179.05l-3.87-.45V177l6.89-2,.63.36-.18,6.39V208.3l-.72-2.3Z" transform="translate(-21 -38.04)"/><path d="M176.78,69.32c0-5,.4-14,.78-19h-.72c-2.88,4.65-6.11,8.57-9.35,13.58l-36.32,50.36,68.38.22,0,5-75.9-.25V116.4l55-76.43h3.58l-.38,114.56-5.37,0Z" transform="translate(-21 -38.04)"/><path d="M214.28,97c.12-37.94,12-59,33.48-59S281,59.27,280.87,97.22s-12,59.75-33.49,59.68S214.15,135,214.28,97Zm60.86.2c.11-35.44-10.57-54.09-27.39-54.15S220.12,61.58,220,97s10.56,54.81,27.38,54.87S275,132.64,275.14,97.2Z" transform="translate(-21 -38.04)"/><path d="M345.75,69.86c0-5,.4-14,.78-19h-.72c-2.88,4.65-6.11,8.57-9.35,13.57l-36.32,50.36,68.38.23,0,5-75.9-.25V117l55-76.44,3.58,0-.38,114.56-5.37,0Z" transform="translate(-21 -38.04)"/></g></svg>